<svg xmlns="http://www.w3.org/2000/svg" viewBox="0 0 1259 2636" fill="none">
  <defs>
    <linearGradient id="body" x1="0" y1="0" x2="1259" y2="2636" gradientUnits="userSpaceOnUse">
      <stop offset="0" stop-color="#2d2d30"/>
      <stop offset="1" stop-color="#1c1c1f"/>
    </linearGradient>
    <mask id="m">
      <rect width="1259" height="2636" rx="98" fill="white"/>
      <rect x="40" y="40" width="1179" height="2556" rx="48" fill="black"/>
    </mask>
  </defs>
  <rect x="1" y="1" width="1257" height="2634" rx="98" stroke="#3a3a3e" stroke-width="2"/>
  <rect width="1259" height="2636" rx="98" fill="url(#body)" mask="url(#m)"/>
  <rect x="39" y="39" width="1181" height="2558" rx="49" stroke="#111" stroke-width="2" fill="none"/>
  <!-- Dynamic Island -->
  <rect x="478" y="52" width="303" height="40" rx="20" fill="#1c1c1f"/>
  <circle cx="556" cy="72" r="6" fill="#111"/>
  <circle cx="556" cy="72" r="3" fill="#1a2a4a" opacity="0.7"/>
  <!-- Side buttons -->
  <rect x="1256" y="600" width="6" height="145" rx="3" fill="#333"/>
  <rect x="-3" y="520" width="6" height="105" rx="3" fill="#333"/>
  <rect x="-3" y="645" width="6" height="105" rx="3" fill="#333"/>
  <!-- Mute switch (left) -->
  <rect x="-3" y="410" width="6" height="45" rx="3" fill="#333"/>
  <!-- Bottom -->
  <rect x="562" y="2620" width="135" height="9" rx="4.5" fill="#111"/>
  <circle cx="400" cy="2624" r="3.5" fill="#111"/>
  <circle cx="416" cy="2624" r="3.5" fill="#111"/>
  <circle cx="432" cy="2624" r="3.5" fill="#111"/>
  <circle cx="448" cy="2624" r="3.5" fill="#111"/>
  <circle cx="811" cy="2624" r="3.5" fill="#111"/>
  <circle cx="827" cy="2624" r="3.5" fill="#111"/>
  <circle cx="843" cy="2624" r="3.5" fill="#111"/>
  <circle cx="859" cy="2624" r="3.5" fill="#111"/>
</svg>
