<svg xmlns="http://www.w3.org/2000/svg" viewBox="0 0 1259 2636" fill="none">
  <defs>
    <linearGradient id="body" x1="0" y1="0" x2="1259" y2="2636" gradientUnits="userSpaceOnUse">
      <stop offset="0" stop-color="#2a2a2e"/>
      <stop offset="1" stop-color="#1a1a1e"/>
    </linearGradient>
    <mask id="m">
      <rect width="1259" height="2636" rx="100" fill="white"/>
      <rect x="40" y="40" width="1179" height="2556" rx="48" fill="black"/>
    </mask>
  </defs>
  <rect x="1" y="1" width="1257" height="2634" rx="100" stroke="#3a3a3e" stroke-width="2"/>
  <rect width="1259" height="2636" rx="100" fill="url(#body)" mask="url(#m)"/>
  <rect x="39" y="39" width="1181" height="2558" rx="49" stroke="#111" stroke-width="2" fill="none"/>
  <!-- Dynamic Island (smaller) -->
  <rect x="478" y="52" width="303" height="40" rx="20" fill="#1a1a1e"/>
  <circle cx="556" cy="72" r="6" fill="#111"/>
  <circle cx="556" cy="72" r="3" fill="#1a2a4a" opacity="0.7"/>
  <!-- Side buttons -->
  <rect x="1256" y="610" width="6" height="145" rx="3" fill="#333"/>
  <rect x="-3" y="530" width="6" height="105" rx="3" fill="#333"/>
  <rect x="-3" y="655" width="6" height="105" rx="3" fill="#333"/>
  <rect x="-3" y="410" width="6" height="60" rx="3" fill="#333"/>
  <!-- Bottom -->
  <rect x="562" y="2620" width="135" height="9" rx="4.5" fill="#111"/>
  <circle cx="395" cy="2624" r="3.5" fill="#111"/>
  <circle cx="411" cy="2624" r="3.5" fill="#111"/>
  <circle cx="427" cy="2624" r="3.5" fill="#111"/>
  <circle cx="443" cy="2624" r="3.5" fill="#111"/>
  <circle cx="816" cy="2624" r="3.5" fill="#111"/>
  <circle cx="832" cy="2624" r="3.5" fill="#111"/>
  <circle cx="848" cy="2624" r="3.5" fill="#111"/>
  <circle cx="864" cy="2624" r="3.5" fill="#111"/>
</svg>
