<svg xmlns="http://www.w3.org/2000/svg" viewBox="0 0 1286 2702" fill="none">
  <defs>
    <linearGradient id="body" x1="0" y1="0" x2="1286" y2="2702" gradientUnits="userSpaceOnUse">
      <stop offset="0" stop-color="#2a2a2e"/>
      <stop offset="1" stop-color="#1a1a1e"/>
    </linearGradient>
    <linearGradient id="edge" x1="0" y1="0" x2="0" y2="2702" gradientUnits="userSpaceOnUse">
      <stop offset="0" stop-color="#444"/>
      <stop offset="0.5" stop-color="#333"/>
      <stop offset="1" stop-color="#444"/>
    </linearGradient>
    <mask id="m">
      <rect width="1286" height="2702" rx="100" fill="white"/>
      <rect x="40" y="40" width="1206" height="2622" rx="50" fill="black"/>
    </mask>
  </defs>
  <rect x="1" y="1" width="1284" height="2700" rx="100" stroke="url(#edge)" stroke-width="2"/>
  <rect width="1286" height="2702" rx="100" fill="url(#body)" mask="url(#m)"/>
  <rect x="39" y="39" width="1208" height="2624" rx="51" stroke="#111" stroke-width="2" fill="none"/>
  <!-- Dynamic Island -->
  <rect x="480" y="52" width="326" height="44" rx="22" fill="#1a1a1e"/>
  <circle cx="565" cy="74" r="7" fill="#111"/>
  <circle cx="565" cy="74" r="3.5" fill="#1a2a4a" opacity="0.7"/>
  <!-- Side buttons -->
  <rect x="1283" y="620" width="6" height="150" rx="3" fill="#333"/>
  <rect x="-3" y="540" width="6" height="110" rx="3" fill="#333"/>
  <rect x="-3" y="670" width="6" height="110" rx="3" fill="#333"/>
  <rect x="-3" y="420" width="6" height="65" rx="3" fill="#333"/>
  <!-- Bottom -->
  <rect x="575" y="2685" width="136" height="10" rx="5" fill="#111"/>
  <circle cx="400" cy="2690" r="4" fill="#111"/>
  <circle cx="418" cy="2690" r="4" fill="#111"/>
  <circle cx="436" cy="2690" r="4" fill="#111"/>
  <circle cx="454" cy="2690" r="4" fill="#111"/>
  <circle cx="472" cy="2690" r="4" fill="#111"/>
  <circle cx="814" cy="2690" r="4" fill="#111"/>
  <circle cx="832" cy="2690" r="4" fill="#111"/>
  <circle cx="850" cy="2690" r="4" fill="#111"/>
  <circle cx="868" cy="2690" r="4" fill="#111"/>
  <circle cx="886" cy="2690" r="4" fill="#111"/>
</svg>
